<svg width="16" height="16" viewBox="0 0 16 16" fill="none" xmlns="http://www.w3.org/2000/svg">
<circle cx="8" cy="8" r="7.75" fill="white" stroke="#8D2338" stroke-width="0.5"/>
<path d="M12.3059 6.11211L7.99956 10.097L3.69322 6.11211C3.61629 6.04076 3.513 6.00082 3.40545 6.00082C3.29789 6.00082 3.1946 6.04076 3.11767 6.11211C3.08041 6.14676 3.05082 6.18812 3.03061 6.23376C3.01041 6.27941 3 6.32842 3 6.37794C3 6.42745 3.01041 6.47646 3.03061 6.52211C3.05082 6.56775 3.08041 6.60911 3.11767 6.64376L7.69886 10.8839C7.77931 10.9583 7.88721 11 7.99956 11C8.11191 11 8.21981 10.9583 8.30026 10.8839L12.8815 6.64458C12.919 6.6099 12.9488 6.56844 12.9691 6.52264C12.9895 6.47685 13 6.42764 13 6.37793C13 6.32823 12.9895 6.27902 12.9691 6.23322C12.9488 6.18743 12.919 6.14597 12.8815 6.11129C12.8045 6.03994 12.7012 6 12.5937 6C12.4861 6 12.3828 6.03994 12.3059 6.11129L12.3059 6.11211Z" fill="#8D2338"/>
</svg>
