<svg width="30" height="31" viewBox="0 0 30 31" fill="none" xmlns="http://www.w3.org/2000/svg">
<path d="M14.0626 13.6404V2.85916H5.39075C5.20427 2.85916 5.02542 2.93324 4.89356 3.0651C4.7617 3.19696 4.68762 3.37581 4.68762 3.56229V28.406C4.68762 28.5925 4.7617 28.7714 4.89356 28.9032C5.02542 29.0351 5.20427 29.1092 5.39075 29.1092H24.6095C24.796 29.1092 24.9748 29.0351 25.1067 28.9032C25.2385 28.7714 25.3126 28.5925 25.3126 28.406V14.1092H14.5314C14.4071 14.1092 14.2878 14.0598 14.1999 13.9719C14.112 13.884 14.0626 13.7647 14.0626 13.6404Z" fill="#909090"/>
<path d="M15.9376 3.42694V11.9998C15.9376 12.062 15.9623 12.1216 16.0063 12.1655C16.0502 12.2095 16.1098 12.2342 16.172 12.2342H24.7448C24.768 12.2342 24.7906 12.2273 24.8099 12.2145C24.8292 12.2017 24.8442 12.1834 24.8531 12.162C24.862 12.1407 24.8644 12.1171 24.8599 12.0944C24.8555 12.0717 24.8444 12.0508 24.8281 12.0344L16.1374 3.34374C16.121 3.32741 16.1001 3.31632 16.0774 3.31186C16.0547 3.3074 16.0311 3.30977 16.0098 3.31867C15.9884 3.32757 15.9701 3.3426 15.9573 3.36187C15.9444 3.38114 15.9376 3.40379 15.9376 3.42694Z" fill="#909090"/>
</svg>
