<svg width="18" height="18" viewBox="0 0 18 18" fill="none" xmlns="http://www.w3.org/2000/svg">
<path d="M5 1.5V3H3.5V4H5V5.5H6V4H7.5V3H6V1.5H5Z" fill="#8D2338"/>
<path fill-rule="evenodd" clip-rule="evenodd" d="M3.5 0C3.10218 0 2.72064 0.158035 2.43934 0.43934C2.15804 0.720644 2 1.10218 2 1.5V2H0V11.5H11V2H9V1.5C9 1.10218 8.84196 0.720644 8.56066 0.43934C8.27936 0.158035 7.89782 0 7.5 0H3.5ZM7.5 7C7.89782 7 8.27936 6.84196 8.56066 6.56066C8.84196 6.27936 9 5.89782 9 5.5V5H10V10.5H7.5V7.5H3.5V10.5H1V5H2V5.5C2 5.89782 2.15804 6.27936 2.43934 6.56066C2.72064 6.84196 3.10218 7 3.5 7H7.5ZM3 1.5C3 1.36739 3.05268 1.24021 3.14645 1.14645C3.24021 1.05268 3.36739 1 3.5 1H7.5C7.63261 1 7.75979 1.05268 7.85355 1.14645C7.94732 1.24021 8 1.36739 8 1.5V5.5C8 5.63261 7.94732 5.75979 7.85355 5.85355C7.75979 5.94732 7.63261 6 7.5 6H3.5C3.36739 6 3.24021 5.94732 3.14645 5.85355C3.05268 5.75979 3 5.63261 3 5.5V1.5ZM1 3H2V4H1V3ZM10 4H9V3H10V4ZM6.5 8.5V10.5H4.5V8.5H6.5ZM12 11C12 10.4696 12.2107 9.96086 12.5858 9.58579C12.9609 9.21071 13.4696 9 14 9C14.5304 9 15.0391 9.21071 15.4142 9.58579C15.7893 9.96086 16 10.4696 16 11C16 11.5304 15.7893 12.0391 15.4142 12.4142C15.0391 12.7893 14.5304 13 14 13C13.4696 13 12.9609 12.7893 12.5858 12.4142C12.2107 12.0391 12 11.5304 12 11ZM14 10C13.7348 10 13.4804 10.1054 13.2929 10.2929C13.1054 10.4804 13 10.7348 13 11C13 11.2652 13.1054 11.5196 13.2929 11.7071C13.4804 11.8946 13.7348 12 14 12C14.2652 12 14.5196 11.8946 14.7071 11.7071C14.8946 11.5196 15 11.2652 15 11C15 10.7348 14.8946 10.4804 14.7071 10.2929C14.5196 10.1054 14.2652 10 14 10ZM14 13.5C12.665 13.5 10 14.231 10 15.682V17H5.5C5.1355 17 4.899 16.8685 4.7485 16.699C4.59 16.5205 4.5 16.2685 4.5 16V14.207L6.1465 15.8535L6.8535 15.1465L4 12.293L1.1465 15.1465L1.8535 15.8535L3.5 14.207V16C3.5 16.4815 3.66 16.9795 4.0015 17.3635C4.351 17.7565 4.8645 18 5.5 18H18V15.682C18 14.231 15.335 13.5 14 13.5ZM11.147 15.4335C11.0055 15.576 11 15.654 11 15.682V17H17V15.682C17 15.654 16.995 15.576 16.853 15.4335C16.703 15.282 16.4505 15.1165 16.1 14.9635C15.394 14.654 14.53 14.5 14 14.5C13.47 14.5 12.606 14.655 11.9 14.963C11.5495 15.116 11.2975 15.282 11.147 15.4335Z" fill="#8D2338"/>
</svg>
