<svg width="2016" height="249" viewBox="0 0 2016 249" fill="none" xmlns="http://www.w3.org/2000/svg">
<path d="M211.37 244.68V85.56L150.76 244.68H123.3L62.3701 85.56V244.68H0.300049V3.98999H86.5201L137.03 136.78L187.18 3.98999H273.43V244.68H211.37Z" fill="#8B0304"/>
<path d="M421.01 65.33L390.36 155.91H451.33L421.01 65.33ZM480.19 244.68L468.27 210.03H373.37L361.45 244.68H291.13L381.69 3.98999H459.99L550.56 244.68H480.2H480.19Z" fill="#8B0304"/>
<path d="M709.32 83.75C709.32 67.16 695.97 58.13 679.37 58.13H630.31V109.72H679.37C695.97 109.72 709.32 100.71 709.32 83.75ZM702.45 244.68L662.08 163.84H630.31V244.68H568.26V3.98999H688.76C742.17 3.98999 772.45 39.37 772.45 84.08C772.45 125.97 747.17 148.32 724.48 156.27L773.56 244.68H702.44H702.45Z" fill="#8B0304"/>
<path d="M911.05 65.33L880.38 155.91H941.35L911.05 65.33ZM970.22 244.68L958.3 210.03H863.45L851.55 244.68H781.16L871.71 3.98999H950.01L1040.6 244.68H970.24H970.22Z" fill="#8B0304"/>
<path d="M1089.69 244.68V58.13H1022.19V3.98999H1218.86V58.13H1151.73V244.68H1089.69Z" fill="#8B0304"/>
<path d="M1410.45 244.68V147.95H1310.53V244.68H1248.44V3.98999H1310.53V93.83H1410.45V3.98999H1472.51V244.68H1410.45Z" fill="#8B0304"/>
<path d="M1697.68 124.53C1697.68 85.19 1672.03 54.87 1632.38 54.87C1592.73 54.87 1566.7 85.19 1566.7 124.53C1566.7 163.87 1592.68 194.16 1632.38 194.16C1672.08 194.16 1697.68 163.47 1697.68 124.53ZM1503.56 124.53C1503.56 51.28 1558.76 0.0300293 1632.38 0.0300293C1706 0.0300293 1760.82 51.28 1760.82 124.53C1760.82 197.78 1706.01 249 1632.38 249C1558.75 249 1503.56 197.76 1503.56 124.53Z" fill="#8B0304"/>
<path d="M1956.07 244.68L1854.3 105.4V244.68H1792.23V3.98999H1856.1L1953.56 136.45V3.98999H2015.97V244.68H1956.07Z" fill="#8B0304"/>
</svg>
