<svg width="18" height="18" viewBox="0 0 18 18" fill="none" xmlns="http://www.w3.org/2000/svg">
<g clip-path="url(#clip0_5433_151)">
<path d="M9.5363 0C12.4397 0 14.7941 2.3094 14.7941 5.1588C14.7931 5.90775 14.6276 6.64734 14.3093 7.32526C13.9909 8.00318 13.5275 8.60286 12.9518 9.0819C13.1978 9.2019 13.4222 9.3225 13.625 9.4437C14.0612 9.7047 14.5142 10.0284 14.984 10.4148C15.0473 10.4663 15.0996 10.5299 15.138 10.6019C15.1763 10.674 15.1999 10.7529 15.2072 10.8342C15.2146 10.9154 15.2057 10.9973 15.1809 11.0751C15.1562 11.1528 15.1162 11.2249 15.0632 11.2869C14.9544 11.4133 14.8005 11.4921 14.6343 11.5066C14.4682 11.521 14.303 11.47 14.174 11.3643C13.7942 11.0465 13.391 10.7577 12.968 10.5003C12.5552 10.2613 12.1271 10.05 11.6864 9.8676C11.0086 10.1659 10.2759 10.3192 9.5354 10.3176C8.71948 10.3193 7.91415 10.133 7.1819 9.7731L7.1441 9.7911C5.3648 10.4715 4.0661 11.4777 3.2291 12.8133C2.3876 14.1534 2.0438 15.651 2.1977 17.3259C2.20458 17.4076 2.19521 17.4899 2.17011 17.568C2.14501 17.6461 2.10468 17.7185 2.05146 17.7809C1.99824 17.8434 1.93317 17.8946 1.86003 17.9318C1.78688 17.9689 1.7071 17.9912 1.6253 17.9973C1.4602 18.0134 1.29545 17.9634 1.16709 17.8583C1.03874 17.7533 0.957227 17.6016 0.940397 17.4366C0.763097 15.4998 1.1681 13.7349 2.1536 12.1644C3.0212 10.782 4.2956 9.7074 5.9606 8.9415C5.4309 8.46393 5.00738 7.88046 4.71746 7.22885C4.42755 6.57723 4.27769 5.872 4.2776 5.1588C4.2776 2.3094 6.6329 0 9.5363 0ZM16.037 12.816C16.1543 12.7007 16.3121 12.6359 16.4765 12.6354C16.641 12.6349 16.7992 12.6988 16.9172 12.8133C17.1602 13.0527 17.1602 13.4415 16.919 13.6818L15.8462 14.7429L16.919 15.8049C16.9766 15.8616 17.0223 15.9292 17.0534 16.0037C17.0845 16.0783 17.1005 16.1583 17.1003 16.2391C17.1001 16.3199 17.0839 16.3998 17.0524 16.4742C17.021 16.5487 16.975 16.6161 16.9172 16.6725C16.7994 16.7873 16.6414 16.8514 16.4769 16.8513C16.3124 16.8511 16.1546 16.7866 16.037 16.6716L14.9687 15.6123L13.9004 16.6716C13.7954 16.7743 13.6577 16.8371 13.5113 16.8491C13.3649 16.8611 13.2188 16.8216 13.0985 16.7373L13.0211 16.6725C12.9633 16.6161 12.9173 16.5487 12.8859 16.4742C12.8544 16.3998 12.8382 16.3199 12.838 16.2391C12.8378 16.1583 12.8538 16.0783 12.8849 16.0037C12.916 15.9292 12.9617 15.8616 13.0193 15.8049L14.0903 14.7429L13.0193 13.6809C12.9617 13.6242 12.916 13.5566 12.8849 13.4821C12.8538 13.4075 12.8378 13.3275 12.838 13.2467C12.8382 13.1659 12.8544 13.086 12.8859 13.0116C12.9173 12.9371 12.9633 12.8697 13.0211 12.8133C13.139 12.6989 13.2969 12.6351 13.4611 12.6354C13.6254 12.6358 13.783 12.7002 13.9004 12.8151L14.9687 13.8735L16.037 12.816ZM9.5363 1.2375C7.3286 1.2375 5.5403 2.9925 5.5403 5.1579C5.5403 7.3233 7.3286 9.0792 9.5363 9.0792C11.7431 9.0792 13.5323 7.3242 13.5323 5.1579C13.5323 2.9916 11.7431 1.2375 9.5363 1.2375Z" fill="#FF0000"/>
</g>
<defs>
<clipPath id="clip0_5433_151">
<rect width="18" height="18" fill="white"/>
</clipPath>
</defs>
</svg>
