<svg width="24" height="20" viewBox="0 0 24 20" fill="none" xmlns="http://www.w3.org/2000/svg">
<path d="M20.1285 6.16318C21.0403 7.04848 21.5636 8.2351 21.6 9.46117C21.5071 10.6168 21.2636 11.5121 20.6133 12.518C20.4533 12.518 20.2933 12.518 20.1285 12.518C20.1285 12.7427 20.1285 12.9674 20.1285 13.1989C19.8885 13.1989 19.6485 13.1989 19.4012 13.1989C19.4012 13.3487 19.4012 13.4985 19.4012 13.6528C17.6697 14.5174 16.0211 14.5792 14.1287 14.1067C12.9833 13.4468 12.0086 12.52 11.4015 11.3832C11.0673 7.92175 11.0673 7.92175 12.0378 6.67384C14.4062 4.3104 17.397 4.23101 20.1285 6.16318Z" fill="#909090"/>
<path d="M12.2683 13.6C12.8375 13.8751 13.3952 14.1587 13.9512 14.4592C15.2704 14.9971 16.693 14.9715 18.0901 14.7852C18.7302 14.5198 19.2657 14.2237 19.8354 13.8361C19.9799 13.7582 20.1244 13.6803 20.2732 13.6C20.5134 13.6782 20.7535 13.7564 21.0009 13.837C21.0009 13.9935 21.0009 14.1499 21.0009 14.3111C21.2411 14.3893 21.4812 14.4675 21.7287 14.5481C21.7287 14.7046 21.7287 14.861 21.7287 15.0222C21.8887 15.0222 22.0488 15.0222 22.2138 15.0222C23.4034 16.8749 23.1841 17.5118 23.1841 20C18.7013 20 14.2186 20 9.60001 20C9.60001 16.9817 10.1062 15.7228 12.2683 13.6Z" fill="#909090"/>
<path d="M5.62703 0.241306C6.3233 0.65488 6.85099 1.11483 7.08171 1.96134C7.26028 2.90825 7.25123 3.78522 6.95399 4.69654C6.61208 5.25376 6.28535 5.58336 5.78164 5.96145C5.67871 6.03947 5.57578 6.11749 5.46973 6.19788C4.57868 6.53366 3.80898 6.43779 2.97445 6.00873C2.34617 5.62419 1.94065 5.25511 1.72815 4.47711C1.53672 3.46016 1.51101 2.33521 1.99569 1.42198C2.99499 0.17912 4.13978 -0.348141 5.62703 0.241306Z" fill="#909090"/>
<path d="M1.37143 6.40002C1.58829 6.5279 1.80514 6.65577 2.02857 6.78752C3.34234 7.44142 4.67961 7.49783 6.14286 7.25002C6.78996 7.02354 7.25104 6.80072 7.77143 6.40002C8.75647 6.70785 9.15129 7.18674 9.6 8.00002C9.6 8.79202 9.6 9.58402 9.6 10.4C6.432 10.4 3.264 10.4 0 10.4C0 7.61431 0 7.61431 1.37143 6.40002Z" fill="#909090"/>
<path d="M0 12C0.500211 12 1.00042 12 1.51579 12C1.51579 13.303 1.51579 14.6059 1.51579 15.9484C3.01642 15.9484 4.51705 15.9484 6.06316 15.9484C5.89642 15.5652 5.72968 15.1819 5.55789 14.7871C5.87368 14.4242 5.87368 14.4242 6.31579 14.0903C7.34526 14.1556 7.84005 14.7235 8.52632 15.3823C8.72822 15.5742 8.93013 15.7661 9.13816 15.9638C9.29057 16.112 9.44297 16.2602 9.6 16.4129C9.22681 17.2147 8.73147 17.7251 8.05263 18.329C7.86961 18.4931 7.68659 18.6572 7.49803 18.8262C7.35799 18.9496 7.21796 19.0729 7.07368 19.2C6.22295 18.8471 5.90946 18.6145 5.55789 17.8065C5.64126 17.7298 5.72463 17.6532 5.81053 17.5742C2.93432 17.4592 2.93432 17.4592 0 17.3419C0 15.5791 0 13.8163 0 12Z" fill="#909090"/>
</svg>
