<svg width="16" height="16" viewBox="0 0 16 16" fill="none" xmlns="http://www.w3.org/2000/svg">
<circle cx="8" cy="8" r="7.75" fill="white" stroke="#6B6B6B" stroke-width="0.5"/>
<path d="M5.54792 4.23022L9.59669 8.47661L5.67646 12.8419C5.60627 12.9199 5.56787 13.0238 5.56947 13.1313C5.57108 13.2389 5.61256 13.3416 5.68505 13.4174C5.72025 13.4542 5.76205 13.4831 5.80799 13.5027C5.85393 13.5222 5.90309 13.5319 5.9526 13.5311C6.00211 13.5304 6.05096 13.5192 6.0963 13.4984C6.14164 13.4775 6.18255 13.4473 6.21664 13.4095L10.3879 8.76553C10.4612 8.68398 10.5012 8.57547 10.4995 8.46313C10.4979 8.3508 10.4546 8.24353 10.379 8.16419L6.07175 3.64678C6.03651 3.60979 5.99461 3.58059 5.94852 3.56091C5.90242 3.54124 5.85306 3.53148 5.80336 3.53223C5.75366 3.53297 5.70462 3.54419 5.65913 3.56523C5.61364 3.58627 5.57263 3.61671 5.53852 3.65474C5.46832 3.73273 5.42993 3.83661 5.43153 3.94415C5.43314 4.05169 5.47462 4.15437 5.54711 4.23023L5.54792 4.23022Z" fill="#909090"/>
</svg>
