<svg width="807" height="570" viewBox="0 0 807 570" fill="none" xmlns="http://www.w3.org/2000/svg">
<path d="M619.157 164.592L403.022 254.52L186.92 164.592L0.0895996 247.05V313.272L187.512 246.842L403.022 320.534L618.549 246.842L806.083 313.272V247.05L619.157 164.592Z" fill="#8B0304"/>
<path d="M617.366 328.404L403.022 384.181L188.695 328.404L0.0895996 379.287V446.469L189.463 410.558L403.214 450.228L616.774 410.558L806.083 446.469V379.287L617.366 328.404Z" fill="#8B0304"/>
<path d="M806.083 507.637L620.309 486.667L403.022 508.421L185.768 486.667L0.0895996 507.781V569.445H806.083V507.637Z" fill="#8B0304"/>
<path d="M620.421 0.556152L403.022 124.379L185.704 0.556152L0.0895996 114.302V180.156L185.608 84.5338L403.022 189.402L619.717 84.8218L806.083 180.156V114.302L620.421 0.556152Z" fill="#8B0304"/>
</svg>
