<?xml version="1.0" encoding="UTF-8"?>
<svg id="Layer_1" data-name="Layer 1" xmlns="http://www.w3.org/2000/svg" viewBox="0 0 2692.97 360">
  <defs>
    <style>
      .cls-1 {
        fill: #8b0304;
        stroke-width: 0px;
      }
    </style>
  </defs>
  <polygon class="cls-1" points="387.02 102.55 251.9 158.77 116.8 102.55 0 154.1 0 195.5 117.17 153.97 251.9 200.04 386.64 153.97 503.88 195.5 503.88 154.1 387.02 102.55"/>
  <polygon class="cls-1" points="385.9 204.96 251.9 239.83 117.91 204.96 0 236.77 0 278.77 118.39 256.32 252.02 281.12 385.53 256.32 503.88 278.77 503.88 236.77 385.9 204.96"/>
  <polygon class="cls-1" points="503.88 317.01 387.74 303.9 251.9 317.5 116.08 303.9 0 317.1 0 355.65 503.88 355.65 503.88 317.01"/>
  <polygon class="cls-1" points="387.81 0 251.9 77.41 116.04 0 0 71.11 0 112.28 115.98 52.5 251.9 118.06 387.37 52.68 503.88 112.28 503.88 71.11 387.81 0"/>
  <polygon class="cls-1" points="888.37 355.68 888.37 196.56 827.76 355.68 800.3 355.68 739.37 196.56 739.37 355.68 677.3 355.68 677.3 114.99 763.52 114.99 814.03 247.78 864.18 114.99 950.43 114.99 950.43 355.68 888.37 355.68"/>
  <path class="cls-1" d="M1098.01,176.33l-30.65,90.58h60.97l-30.32-90.58ZM1157.19,355.68l-11.92-34.65h-94.9l-11.92,34.65h-70.32l90.56-240.69h78.3l90.57,240.69h-70.36Z"/>
  <path class="cls-1" d="M1386.32,194.75c0-16.59-13.35-25.62-29.95-25.62h-49.06v51.59h49.06c16.6,0,29.95-9.01,29.95-25.97M1379.45,355.68l-40.37-80.84h-31.77v80.84h-62.05V114.99h120.5c53.41,0,83.69,35.38,83.69,80.09,0,41.89-25.28,64.24-47.97,72.19l49.08,88.41h-71.12Z"/>
  <path class="cls-1" d="M1588.05,176.33l-30.67,90.58h60.97l-30.3-90.58ZM1647.22,355.68l-11.92-34.65h-94.85l-11.9,34.65h-70.39l90.55-240.69h78.3l90.59,240.69h-70.36Z"/>
  <polygon class="cls-1" points="1766.69 355.68 1766.69 169.13 1699.19 169.13 1699.19 114.99 1895.86 114.99 1895.86 169.13 1828.73 169.13 1828.73 355.68 1766.69 355.68"/>
  <polygon class="cls-1" points="2087.45 355.68 2087.45 258.95 1987.53 258.95 1987.53 355.68 1925.44 355.68 1925.44 114.99 1987.53 114.99 1987.53 204.83 2087.45 204.83 2087.45 114.99 2149.51 114.99 2149.51 355.68 2087.45 355.68"/>
  <path class="cls-1" d="M2374.68,235.53c0-39.34-25.65-69.66-65.3-69.66s-65.68,30.32-65.68,69.66,25.98,69.63,65.68,69.63,65.3-30.69,65.3-69.63M2180.56,235.53c0-73.25,55.2-124.5,128.82-124.5s128.44,51.25,128.44,124.5-54.81,124.47-128.44,124.47-128.82-51.24-128.82-124.47"/>
  <polygon class="cls-1" points="2633.07 355.68 2531.3 216.4 2531.3 355.68 2469.23 355.68 2469.23 114.99 2533.1 114.99 2630.56 247.45 2630.56 114.99 2692.97 114.99 2692.97 355.68 2633.07 355.68"/>
</svg>