<svg width="23" height="27" viewBox="0 0 23 27" fill="none" xmlns="http://www.w3.org/2000/svg">
<path d="M12.5 26.4167L12.1771 22.5417H11.8542C8.79722 22.5417 6.20312 21.4761 4.07188 19.3448C1.94062 17.2136 0.875 14.6195 0.875 11.5625C0.875 8.50557 1.94062 5.91147 4.07188 3.78022C6.20312 1.64897 8.79722 0.583344 11.8542 0.583344C13.3826 0.583344 14.8091 0.868371 16.1335 1.43843C17.4578 2.00848 18.6203 2.79425 19.621 3.79572C20.6216 4.79719 21.4069 5.95969 21.977 7.28322C22.547 8.60675 22.8325 10.0332 22.8333 11.5625C22.8333 13.1771 22.5698 14.7271 22.0428 16.2125C21.5158 17.6979 20.7942 19.0757 19.878 20.3458C18.9635 21.616 17.8763 22.7677 16.6165 23.8011C15.3567 24.8344 13.9846 25.7063 12.5 26.4167ZM11.8219 18.6344C12.1878 18.6344 12.5 18.5052 12.7583 18.2469C13.0167 17.9886 13.1458 17.6764 13.1458 17.3104C13.1458 16.9445 13.0167 16.6323 12.7583 16.374C12.5 16.1156 12.1878 15.9865 11.8219 15.9865C11.4559 15.9865 11.1438 16.1156 10.8854 16.374C10.6271 16.6323 10.4979 16.9445 10.4979 17.3104C10.4979 17.6764 10.6271 17.9886 10.8854 18.2469C11.1438 18.5052 11.4559 18.6344 11.8219 18.6344ZM10.8854 14.5333H12.8229C12.8229 13.8875 12.8875 13.4354 13.0167 13.1771C13.1458 12.9188 13.5549 12.4451 14.2438 11.7563C14.6313 11.3688 14.9542 10.949 15.2125 10.4969C15.4708 10.0448 15.6 9.56043 15.6 9.04376C15.6 7.94584 15.2289 7.12219 14.4866 6.5728C13.7443 6.02341 12.8668 5.74915 11.8542 5.75001C10.9069 5.75001 10.1104 6.01394 9.46458 6.5418C8.81875 7.06966 8.36667 7.7099 8.10833 8.46251L9.91667 9.17293C10.0243 8.80695 10.2288 8.44658 10.5302 8.0918C10.8316 7.73702 11.2729 7.55921 11.8542 7.55834C12.4354 7.55834 12.8716 7.7198 13.1626 8.04272C13.4537 8.36564 13.5988 8.72084 13.5979 9.10834C13.5979 9.47432 13.4903 9.80283 13.275 10.0939C13.0597 10.3849 12.8014 10.6807 12.5 10.9813C11.7465 11.6271 11.2893 12.1386 11.1283 12.5158C10.9672 12.8929 10.8863 13.5655 10.8854 14.5333Z" fill="#909090"/>
</svg>
