<svg width="15" height="18" viewBox="0 0 15 18" fill="none" xmlns="http://www.w3.org/2000/svg">
<path d="M8 17.3333L7.79167 14.8333H7.58333C5.61111 14.8333 3.9375 14.1458 2.5625 12.7708C1.1875 11.3958 0.5 9.72222 0.5 7.75C0.5 5.77778 1.1875 4.10416 2.5625 2.72916C3.9375 1.35416 5.61111 0.666664 7.58333 0.666664C8.56944 0.666664 9.48972 0.850553 10.3442 1.21833C11.1986 1.58611 11.9486 2.09305 12.5942 2.73916C13.2397 3.38528 13.7464 4.13528 14.1142 4.98916C14.4819 5.84305 14.6661 6.76333 14.6667 7.75C14.6667 8.79166 14.4967 9.79167 14.1567 10.75C13.8167 11.7083 13.3511 12.5972 12.76 13.4167C12.17 14.2361 11.4686 14.9792 10.6558 15.6458C9.84306 16.3125 8.95778 16.875 8 17.3333ZM7.5625 12.3125C7.79861 12.3125 8 12.2292 8.16667 12.0625C8.33333 11.8958 8.41667 11.6944 8.41667 11.4583C8.41667 11.2222 8.33333 11.0208 8.16667 10.8542C8 10.6875 7.79861 10.6042 7.5625 10.6042C7.32639 10.6042 7.125 10.6875 6.95833 10.8542C6.79167 11.0208 6.70833 11.2222 6.70833 11.4583C6.70833 11.6944 6.79167 11.8958 6.95833 12.0625C7.125 12.2292 7.32639 12.3125 7.5625 12.3125ZM6.95833 9.66667H8.20833C8.20833 9.25 8.25 8.95833 8.33333 8.79166C8.41667 8.625 8.68056 8.31944 9.125 7.875C9.375 7.625 9.58333 7.35416 9.75 7.0625C9.91667 6.77083 10 6.45833 10 6.125C10 5.41666 9.76056 4.88528 9.28167 4.53083C8.80278 4.17639 8.23667 3.99944 7.58333 4C6.97222 4 6.45833 4.17028 6.04167 4.51083C5.625 4.85139 5.33333 5.26444 5.16667 5.75L6.33333 6.20833C6.40278 5.97222 6.53472 5.73972 6.72917 5.51083C6.92361 5.28194 7.20833 5.16722 7.58333 5.16666C7.95833 5.16666 8.23972 5.27083 8.4275 5.47916C8.61528 5.6875 8.70889 5.91666 8.70833 6.16666C8.70833 6.40278 8.63889 6.61472 8.5 6.8025C8.36111 6.99028 8.19444 7.18111 8 7.375C7.51389 7.79166 7.21889 8.12166 7.115 8.365C7.01111 8.60833 6.95889 9.04222 6.95833 9.66667Z" fill="#8D2338"/>
</svg>
