<svg width="26" height="23" viewBox="0 0 26 23" fill="none" xmlns="http://www.w3.org/2000/svg">
<path d="M2.7297 23H23.2703C25.3707 23 26.6801 20.7416 25.6299 18.943L15.3596 1.34896C14.3094 -0.449655 11.6906 -0.449655 10.6404 1.34896L0.370128 18.943C-0.680088 20.7416 0.629272 23 2.7297 23ZM13 13.5336C12.2498 13.5336 11.6361 12.925 11.6361 12.1812V9.47655C11.6361 8.73277 12.2498 8.12421 13 8.12421C13.7502 8.12421 14.3639 8.73277 14.3639 9.47655V12.1812C14.3639 12.925 13.7502 13.5336 13 13.5336ZM14.3639 18.943H11.6361V16.2383H14.3639V18.943Z" fill="#FF0000"/>
</svg>
